<svg width="146" height="40" viewBox="0 0 146 40" fill="none" xmlns="http://www.w3.org/2000/svg">
<path d="M5.592 21L0.36 3.456H3.552L6.336 12.72C6.6 13.68 6.864 14.664 7.128 16.2C7.416 14.64 7.68 13.728 7.992 12.72L10.752 3.456H14.136L16.848 12.72C17.136 13.704 17.4 14.712 17.688 16.2C18.024 14.568 18.264 13.632 18.528 12.744L21.36 3.456H24.48L19.152 21H16.176L12.432 8.232L8.616 21H5.592ZM42.1395 12.216C42.1395 17.544 38.6355 21.288 33.5955 21.288C28.5795 21.288 25.1235 17.568 25.1235 12.216C25.1235 6.888 28.6035 3.144 33.6195 3.144C38.6355 3.144 42.1395 6.864 42.1395 12.216ZM38.8995 12.216C38.8995 8.472 36.8355 6.096 33.6195 6.096C30.4035 6.096 28.3395 8.472 28.3395 12.216C28.3395 15.96 30.4035 18.336 33.6195 18.336C36.8355 18.336 38.8995 15.912 38.8995 12.216ZM61.0067 12.216C61.0067 17.544 57.5027 21.288 52.4627 21.288C47.4467 21.288 43.9907 17.568 43.9907 12.216C43.9907 6.888 47.4707 3.144 52.4867 3.144C57.5027 3.144 61.0067 6.864 61.0067 12.216ZM57.7667 12.216C57.7667 8.472 55.7027 6.096 52.4867 6.096C49.2707 6.096 47.2067 8.472 47.2067 12.216C47.2067 15.96 49.2707 18.336 52.4867 18.336C55.7027 18.336 57.7667 15.912 57.7667 12.216ZM70.1779 21H63.8659V3.456H70.0099C75.1939 3.456 78.7699 7.032 78.7699 12.264C78.7699 17.424 75.2659 21 70.1779 21ZM69.7219 6.288H66.9379V18.168H69.8899C73.3939 18.168 75.5299 15.912 75.5299 12.264C75.5299 8.544 73.3459 6.288 69.7219 6.288ZM84.7035 3.456V18.168H92.0475V21H81.6315V3.456H84.7035ZM96.5263 21H93.3343L99.6703 3.456H102.814L109.15 21H105.91L104.494 16.944H97.9423L96.5263 21ZM100.846 8.688L98.8543 14.352H103.606L101.59 8.688C101.446 8.232 101.278 7.704 101.23 7.344C101.158 7.68 101.014 8.208 100.846 8.688ZM114.374 21H111.35V3.456H114.398L122.63 15.888V3.456H125.654V21H122.63L114.374 8.568V21ZM135.85 21H129.538V3.456H135.682C140.866 3.456 144.442 7.032 144.442 12.264C144.442 17.424 140.938 21 135.85 21ZM135.394 6.288H132.61V18.168H135.562C139.066 18.168 141.202 15.912 141.202 12.264C141.202 8.544 139.018 6.288 135.394 6.288Z" fill="#1E1E1E"/>
<path d="M1.85865 31.0375C1.85865 29.6875 2.93865 28.7987 4.55865 28.7987C6.0099 28.7987 6.96615 29.6087 7.0899 30.9587H6.26865C6.17865 30.0475 5.5599 29.53 4.5474 29.53C3.41115 29.53 2.66865 30.115 2.66865 31.0262C2.66865 31.735 3.0849 32.185 3.92865 32.3987L5.3124 32.7362C6.5724 33.04 7.2249 33.76 7.2249 34.8512C7.2249 36.2462 6.1449 37.135 4.4799 37.135C2.91615 37.135 1.85865 36.3137 1.7574 34.9975H2.5899C2.6349 35.8412 3.3774 36.3925 4.4799 36.3925C5.66115 36.3925 6.4149 35.8187 6.4149 34.8962C6.4149 34.1762 6.0099 33.7037 5.14365 33.5012L3.7824 33.1637C2.5224 32.86 1.85865 32.14 1.85865 31.0375ZM8.51276 39.3738V31.555H9.18776L9.26651 32.6575C9.64901 31.8137 10.414 31.4087 11.3253 31.4087C12.9003 31.4087 13.8453 32.6125 13.8453 34.255C13.8453 35.8975 12.934 37.135 11.3253 37.135C10.4028 37.135 9.67151 36.7412 9.28901 35.9537V39.3738H8.51276ZM9.30026 34.2775C9.30026 35.5262 9.99776 36.4375 11.1903 36.4375C12.3715 36.4375 13.0578 35.5262 13.0578 34.2775C13.0578 33.0175 12.3715 32.1175 11.1903 32.1175C9.99776 32.1175 9.30026 33.0175 9.30026 34.2775ZM16.6463 37.135C15.4876 37.135 14.8013 36.4825 14.8013 35.5262C14.8013 34.525 15.5663 33.895 16.8376 33.7937L18.6376 33.6475V33.4675C18.6376 32.3987 17.9963 32.0612 17.1976 32.0612C16.2526 32.0612 15.6901 32.4887 15.6901 33.22H14.9813C14.9813 32.1175 15.8813 31.4087 17.2201 31.4087C18.4801 31.4087 19.4026 32.0387 19.4026 33.4787V37H18.7501L18.6488 36.0437C18.3113 36.73 17.5688 37.135 16.6463 37.135ZM16.8263 36.505C17.9738 36.505 18.6376 35.7062 18.6376 34.525V34.2325L17.0288 34.3562C16.0051 34.4462 15.5888 34.8962 15.5888 35.5037C15.5888 36.1675 16.0838 36.505 16.8263 36.505ZM20.5778 34.2887C20.5778 32.5787 21.624 31.4087 23.2103 31.4087C24.4703 31.4087 25.3928 32.14 25.6065 33.265H24.8303C24.6278 32.5112 23.9753 32.095 23.2215 32.095C22.119 32.095 21.3428 32.9387 21.3428 34.2775C21.3428 35.5712 22.0628 36.4375 23.1653 36.4375C23.9753 36.4375 24.6278 35.9875 24.8415 35.29H25.629C25.3703 36.4037 24.4028 37.135 23.1653 37.135C21.624 37.135 20.5778 35.9987 20.5778 34.2887ZM29.0887 37.135C27.4912 37.135 26.4225 35.9875 26.4225 34.2775C26.4225 32.5787 27.48 31.4087 29.0325 31.4087C30.5062 31.4087 31.5075 32.455 31.5075 33.9962V34.3787H27.1762C27.2325 35.7062 27.93 36.4712 29.1 36.4712C29.9887 36.4712 30.5625 36.0887 30.765 35.3687H31.5075C31.215 36.5162 30.3712 37.135 29.0887 37.135ZM29.0325 32.0725C28.0087 32.0725 27.3337 32.7475 27.1987 33.8162H30.7312C30.7312 32.77 30.0562 32.0725 29.0325 32.0725ZM32.2873 35.47H33.0298C33.0298 36.1 33.5023 36.4937 34.2673 36.4937C35.1111 36.4937 35.6061 36.1337 35.6061 35.5487C35.6061 35.0987 35.3811 34.84 34.7398 34.6825L33.8061 34.4462C32.8611 34.21 32.3998 33.715 32.3998 32.9725C32.3998 32.0162 33.1986 31.4087 34.3686 31.4087C35.5161 31.4087 36.2586 32.0387 36.2923 33.0512H35.5386C35.5161 32.4212 35.0773 32.05 34.3461 32.05C33.5811 32.05 33.1536 32.3762 33.1536 32.9612C33.1536 33.3775 33.4461 33.67 34.0423 33.8162L34.9761 34.0525C35.9211 34.2887 36.3486 34.7275 36.3486 35.515C36.3486 36.4937 35.5161 37.135 34.2786 37.135C33.0523 37.135 32.2873 36.4825 32.2873 35.47ZM41.5566 37H40.7804V28.7987H41.5566V37ZM43.5901 30.0587C43.2751 30.0587 43.0163 29.8 43.0163 29.485C43.0163 29.17 43.2751 28.9 43.5901 28.9C43.9051 28.9 44.1751 29.17 44.1751 29.485C44.1751 29.8 43.9051 30.0587 43.5901 30.0587ZM43.2076 37V31.555H43.9838V37H43.2076ZM46.4126 37H45.6364V28.7987H46.4126V34.3675L49.1126 31.555H50.0914L47.9989 33.7262L50.1026 37H49.2026L47.4701 34.2775L46.4126 35.3687V37ZM53.1268 37.135C51.5293 37.135 50.4606 35.9875 50.4606 34.2775C50.4606 32.5787 51.5181 31.4087 53.0706 31.4087C54.5443 31.4087 55.5456 32.455 55.5456 33.9962V34.3787H51.2143C51.2706 35.7062 51.9681 36.4712 53.1381 36.4712C54.0268 36.4712 54.6006 36.0887 54.8031 35.3687H55.5456C55.2531 36.5162 54.4093 37.135 53.1268 37.135ZM53.0706 32.0725C52.0468 32.0725 51.3718 32.7475 51.2368 33.8162H54.7693C54.7693 32.77 54.0943 32.0725 53.0706 32.0725ZM60.6831 36.9887H59.9068V28.7987H60.6831V32.5C61.0318 31.8475 61.6956 31.4087 62.6068 31.4087C64.0356 31.4087 64.6768 32.2975 64.6768 33.67V37H63.9006V33.8387C63.9006 32.5675 63.3043 32.1175 62.4606 32.1175C61.2906 32.1175 60.6831 32.9837 60.6831 34.03V36.9887ZM65.8414 34.2775C65.8414 32.6125 67.0114 31.4087 68.6089 31.4087C70.2064 31.4087 71.3764 32.6125 71.3764 34.2775C71.3764 35.9312 70.2064 37.135 68.6089 37.135C67.0114 37.135 65.8414 35.9312 65.8414 34.2775ZM66.6289 34.2662C66.6289 35.5487 67.4389 36.4375 68.6089 36.4375C69.7677 36.4375 70.5889 35.5487 70.5889 34.2662C70.5889 33.0062 69.7677 32.1062 68.6089 32.1062C67.4389 32.1062 66.6289 33.0062 66.6289 34.2662ZM73.3942 37H72.618V31.555H73.293L73.383 32.3312C73.653 31.7575 74.2605 31.4087 75.0255 31.4087C75.8805 31.4087 76.5217 31.8587 76.7805 32.5675C77.028 31.8587 77.6917 31.4087 78.5692 31.4087C79.7505 31.4087 80.5267 32.1737 80.5267 33.4337V37H79.773V33.5912C79.773 32.6575 79.2555 32.1062 78.423 32.1062C77.5117 32.1062 76.9717 32.7925 76.9717 33.6362V37H76.2067V33.58C76.2067 32.6575 75.678 32.1175 74.8567 32.1175C73.9455 32.1175 73.3942 32.7925 73.3942 33.625V37ZM84.3719 37.135C82.7744 37.135 81.7057 35.9875 81.7057 34.2775C81.7057 32.5787 82.7632 31.4087 84.3157 31.4087C85.7894 31.4087 86.7907 32.455 86.7907 33.9962V34.3787H82.4594C82.5157 35.7062 83.2132 36.4712 84.3832 36.4712C85.2719 36.4712 85.8457 36.0887 86.0482 35.3687H86.7907C86.4982 36.5162 85.6544 37.135 84.3719 37.135ZM84.3157 32.0725C83.2919 32.0725 82.6169 32.7475 82.4819 33.8162H86.0144C86.0144 32.77 85.3394 32.0725 84.3157 32.0725ZM90.6907 35.47H91.4332C91.4332 36.1 91.9057 36.4937 92.6707 36.4937C93.5144 36.4937 94.0094 36.1337 94.0094 35.5487C94.0094 35.0987 93.7844 34.84 93.1432 34.6825L92.2094 34.4462C91.2644 34.21 90.8032 33.715 90.8032 32.9725C90.8032 32.0162 91.6019 31.4087 92.7719 31.4087C93.9194 31.4087 94.6619 32.0387 94.6957 33.0512H93.9419C93.9194 32.4212 93.4807 32.05 92.7494 32.05C91.9844 32.05 91.5569 32.3762 91.5569 32.9612C91.5569 33.3775 91.8494 33.67 92.4457 33.8162L93.3794 34.0525C94.3244 34.2887 94.7519 34.7275 94.7519 35.515C94.7519 36.4937 93.9194 37.135 92.6819 37.135C91.4557 37.135 90.6907 36.4825 90.6907 35.47ZM96.4123 30.0587C96.0973 30.0587 95.8386 29.8 95.8386 29.485C95.8386 29.17 96.0973 28.9 96.4123 28.9C96.7273 28.9 96.9973 29.17 96.9973 29.485C96.9973 29.8 96.7273 30.0587 96.4123 30.0587ZM96.0298 37V31.555H96.8061V37H96.0298ZM99.2011 37H98.4249V31.555H99.0999L99.2124 32.5C99.5724 31.8025 100.292 31.4087 101.08 31.4087C102.576 31.4087 103.195 32.2975 103.195 33.67V37H102.419V33.8387C102.419 32.5675 101.845 32.1175 100.945 32.1175C99.8311 32.1175 99.2011 32.9275 99.2011 34.1537V37ZM104.36 34.2887C104.36 32.5787 105.406 31.4087 106.992 31.4087C108.252 31.4087 109.175 32.14 109.388 33.265H108.612C108.41 32.5112 107.757 32.095 107.003 32.095C105.901 32.095 105.125 32.9387 105.125 34.2775C105.125 35.5712 105.845 36.4375 106.947 36.4375C107.757 36.4375 108.41 35.9875 108.623 35.29H109.411C109.152 36.4037 108.185 37.135 106.947 37.135C105.406 37.135 104.36 35.9987 104.36 34.2887ZM112.87 37.135C111.273 37.135 110.204 35.9875 110.204 34.2775C110.204 32.5787 111.262 31.4087 112.814 31.4087C114.288 31.4087 115.289 32.455 115.289 33.9962V34.3787H110.958C111.014 35.7062 111.712 36.4712 112.882 36.4712C113.77 36.4712 114.344 36.0887 114.547 35.3687H115.289C114.997 36.5162 114.153 37.135 112.87 37.135ZM112.814 32.0725C111.79 32.0725 111.115 32.7475 110.98 33.8162H114.513C114.513 32.77 113.838 32.0725 112.814 32.0725ZM124.657 37H119.347V36.3587L121.923 34.1088C123.408 32.815 123.79 32.2525 123.79 31.2962C123.79 30.205 123.138 29.5412 122.069 29.5412C120.955 29.5412 120.224 30.3512 120.19 31.6H119.38C119.425 29.9125 120.494 28.7987 122.08 28.7987C123.599 28.7987 124.612 29.7775 124.612 31.2512C124.612 32.4212 124.083 33.1975 122.474 34.6037L120.595 36.2462H124.657V37ZM125.776 32.9725C125.776 30.475 127.003 28.7875 129.005 28.7875C130.996 28.7875 132.223 30.475 132.223 32.9725C132.223 35.4812 131.019 37.1463 129.005 37.1463C126.98 37.1463 125.776 35.4812 125.776 32.9725ZM126.575 32.9725C126.575 35.065 127.464 36.415 129.005 36.415C130.546 36.415 131.435 35.065 131.435 32.9725C131.435 30.8687 130.546 29.53 129.005 29.53C127.464 29.53 126.575 30.8687 126.575 32.9725ZM134.873 29.6762H133.231V28.945H135.65V37H134.873V29.6762ZM137.213 32.9725C137.213 30.475 138.439 28.7875 140.442 28.7875C142.433 28.7875 143.659 30.475 143.659 32.9725C143.659 35.4812 142.456 37.1463 140.442 37.1463C138.417 37.1463 137.213 35.4812 137.213 32.9725ZM138.012 32.9725C138.012 35.065 138.901 36.415 140.442 36.415C141.983 36.415 142.872 35.065 142.872 32.9725C142.872 30.8687 141.983 29.53 140.442 29.53C138.901 29.53 138.012 30.8687 138.012 32.9725Z" fill="#1E1E1E"/>
</svg>
